<svg width="1440" height="218" viewBox="0 0 1440 218" fill="none" xmlns="http://www.w3.org/2000/svg">
<g clip-path="url(#clip0)">
<path fill-rule="evenodd" clip-rule="evenodd" d="M1891 143.287L1812.21 115.319C1733.42 87.3514 1575.83 31.4153 1418.25 10.4392C1260.67 -10.5368 1103.08 3.4472 945.5 52.3913C787.917 101.335 630.333 185.24 472.75 206.216C315.167 227.192 157.583 185.24 78.7916 164.264L0 143.287V395H78.7916C157.583 395 315.167 395 472.75 395C630.333 395 787.917 395 945.5 395C1103.08 395 1260.67 395 1418.25 395C1575.83 395 1733.42 395 1812.21 395H1891V143.287Z" fill="#423D33"/>
</g>
<defs>
<clipPath id="clip0">
<rect width="1440" height="218" fill="white"/>
</clipPath>
</defs>
</svg>
